<svg xmlns="http://www.w3.org/2000/svg" xmlns:xlink="http://www.w3.org/1999/xlink" viewBox="0 0 275.28 241.58"><defs><style>.cls-1{fill:none;}.cls-2{isolation:isolate;}.cls-3{clip-path:url(#clip-path);}.cls-4{fill:#999;}.cls-5{clip-path:url(#clip-path-2);}.cls-6{clip-path:url(#clip-path-3);}.cls-7{clip-path:url(#clip-path-4);}.cls-8{fill:#949494;}.cls-9{clip-path:url(#clip-path-5);}.cls-10{fill:#858585;}.cls-11{clip-path:url(#clip-path-6);}.cls-12{clip-path:url(#clip-path-7);}.cls-13{fill:#8f8f8f;}.cls-14{fill:#8a8a8a;}.cls-15{clip-path:url(#clip-path-8);}.cls-16{clip-path:url(#clip-path-9);}.cls-17{clip-path:url(#clip-path-10);}.cls-18{clip-path:url(#clip-path-11);}.cls-19{fill:#eaeaea;}.cls-20{clip-path:url(#clip-path-12);}.cls-21{clip-path:url(#clip-path-13);}.cls-22{clip-path:url(#clip-path-14);}.cls-23{clip-path:url(#clip-path-15);}.cls-24{clip-path:url(#clip-path-16);}.cls-25{clip-path:url(#clip-path-17);}.cls-26{clip-path:url(#clip-path-18);}.cls-27{clip-path:url(#clip-path-19);}.cls-28{clip-path:url(#clip-path-20);}.cls-29{clip-path:url(#clip-path-21);}.cls-30{clip-path:url(#clip-path-22);}.cls-31{clip-path:url(#clip-path-23);}.cls-32{clip-path:url(#clip-path-24);}.cls-33{clip-path:url(#clip-path-25);}.cls-34{clip-path:url(#clip-path-26);}.cls-35{clip-path:url(#clip-path-27);}.cls-36{clip-path:url(#clip-path-28);}.cls-37{clip-path:url(#clip-path-29);}.cls-38{clip-path:url(#clip-path-30);}.cls-39{clip-path:url(#clip-path-31);}.cls-40{clip-path:url(#clip-path-32);}.cls-41{clip-path:url(#clip-path-33);}.cls-42{clip-path:url(#clip-path-34);}.cls-43{clip-path:url(#clip-path-35);}.cls-44{clip-path:url(#clip-path-36);}.cls-45{clip-path:url(#clip-path-37);}.cls-46{clip-path:url(#clip-path-38);}.cls-47{clip-path:url(#clip-path-39);}.cls-48{clip-path:url(#clip-path-40);}.cls-49{clip-path:url(#clip-path-41);}.cls-50{clip-path:url(#clip-path-42);}.cls-51{clip-path:url(#clip-path-43);}.cls-52{clip-path:url(#clip-path-44);}.cls-53{clip-path:url(#clip-path-45);}.cls-54{clip-path:url(#clip-path-46);}.cls-55{clip-path:url(#clip-path-47);}.cls-56{clip-path:url(#clip-path-48);}.cls-57{clip-path:url(#clip-path-49);}.cls-58{clip-path:url(#clip-path-50);}.cls-59{clip-path:url(#clip-path-51);}.cls-60{clip-path:url(#clip-path-52);}.cls-61{clip-path:url(#clip-path-53);}.cls-62{fill:#8f1a17;}.cls-63{clip-path:url(#clip-path-54);}.cls-64{clip-path:url(#clip-path-55);}.cls-65{clip-path:url(#clip-path-56);}.cls-66{clip-path:url(#clip-path-57);}.cls-67{clip-path:url(#clip-path-58);}.cls-68{clip-path:url(#clip-path-59);}.cls-69{fill:#8c1915;}.cls-70{clip-path:url(#clip-path-60);}.cls-71{fill:#911b17;}.cls-72{clip-path:url(#clip-path-61);}.cls-73{clip-path:url(#clip-path-62);}.cls-74{clip-path:url(#clip-path-63);}.cls-75{clip-path:url(#clip-path-64);}.cls-76{clip-path:url(#clip-path-65);}.cls-77{clip-path:url(#clip-path-66);}.cls-78{fill:#ea3735;}.cls-79{clip-path:url(#clip-path-67);}.cls-80{clip-path:url(#clip-path-68);}.cls-81{clip-path:url(#clip-path-69);}.cls-82{clip-path:url(#clip-path-70);}.cls-83{clip-path:url(#clip-path-71);}.cls-84{clip-path:url(#clip-path-72);}.cls-85{clip-path:url(#clip-path-73);}.cls-86{clip-path:url(#clip-path-74);}.cls-87{clip-path:url(#clip-path-75);}.cls-88{fill:#8c1815;}.cls-89{clip-path:url(#clip-path-76);}.cls-90{clip-path:url(#clip-path-77);}.cls-91{clip-path:url(#clip-path-78);}.cls-92{clip-path:url(#clip-path-79);}.cls-93{clip-path:url(#clip-path-80);}.cls-94{fill:#8d1915;}.cls-95{clip-path:url(#clip-path-81);}.cls-96{clip-path:url(#clip-path-82);}.cls-97{clip-path:url(#clip-path-83);}.cls-98{clip-path:url(#clip-path-84);}.cls-99{clip-path:url(#clip-path-85);}.cls-100{clip-path:url(#clip-path-86);}.cls-101{clip-path:url(#clip-path-87);}.cls-102{clip-path:url(#clip-path-88);}.cls-103{clip-path:url(#clip-path-89);}.cls-104{clip-path:url(#clip-path-90);}.cls-105{clip-path:url(#clip-path-91);}.cls-106{fill:#901a17;}.cls-107{clip-path:url(#clip-path-92);}.cls-108{clip-path:url(#clip-path-93);}</style><clipPath id="clip-path"><path class="cls-1" d="M238.93,107.87l-4.51-1a8.72,8.72,0,0,0,3,.06,14.59,14.59,0,0,0,2.22-.51l4.51.94a14.44,14.44,0,0,1-2.23.51A8.43,8.43,0,0,1,238.93,107.87Z"/></clipPath><clipPath id="clip-path-2"><path class="cls-1" d="M227.15,82.74l-4.51-.95a8.43,8.43,0,0,0,3,0,13.1,13.1,0,0,0,2.19-.5l4.51,1a14.55,14.55,0,0,1-2.2.5A8.87,8.87,0,0,1,227.15,82.74Z"/></clipPath><clipPath id="clip-path-3"><path class="cls-1" d="M215.19,57.6l-4.51-1a9.72,9.72,0,0,0,3.38,0,18.44,18.44,0,0,0,2-.4l4.51,1a18.6,18.6,0,0,1-2,.4A9.66,9.66,0,0,1,215.19,57.6Z"/></clipPath><clipPath id="clip-path-4"><path class="cls-1" d="M193.46,93.4l-4.5-1a1.67,1.67,0,0,0,.5,0,3.22,3.22,0,0,0,1.37-.66c1.53-1.1,3.18-2,5.28-3.27l4.51.94c-2.11,1.29-3.75,2.17-5.28,3.28a3.21,3.21,0,0,1-1.38.65A1.4,1.4,0,0,1,193.46,93.4Z"/></clipPath><clipPath id="clip-path-5"><path class="cls-1" d="M184.29,100.88l4.51,1c.86.18,1.19.76,1.31,1.85.25,2.06.65,4.1,1.1,6.83l-4.51-1c-.45-2.73-.84-4.76-1.09-6.83C185.48,101.64,185.16,101.07,184.29,100.88Z"/></clipPath><clipPath id="clip-path-6"><path class="cls-1" d="M229.42,116l-4.51-1L194.79,50.74l4.51.95C209.34,73.15,219.35,94.51,229.42,116Z"/></clipPath><clipPath id="clip-path-7"><path class="cls-1" d="M182.16,101l-4.51-.94c2.16-1.39,3.81-2.56,5.54-3.53a2.15,2.15,0,0,0,1.22-2.6,31.24,31.24,0,0,1-.56-6.43l4.51,1a31.3,31.3,0,0,0,.56,6.43,2.15,2.15,0,0,1-1.23,2.6C186,98.43,184.32,99.59,182.16,101Z"/></clipPath><clipPath id="clip-path-8"><path class="cls-1" d="M176.3,119.72l-4.5-.94c-2.42-5.14-4.76-10.13-7.21-15.32l4.51,1C171.54,109.6,173.88,114.59,176.3,119.72Z"/></clipPath><clipPath id="clip-path-9"><path class="cls-1" d="M163.84,122.54l-4.51-1,6.33-3.82,4.5,1Z"/></clipPath><clipPath id="clip-path-10"><path class="cls-1" d="M165.41,106.54l-4.5-1-1.67-3.6,4.51,1C164.37,104.29,164.86,105.36,165.41,106.54Z"/></clipPath><clipPath id="clip-path-11"><path class="cls-1" d="M163.75,102.94l-4.51-1,11.46-7.12,4.51.95Z"/></clipPath><clipPath id="clip-path-12"><path class="cls-1" d="M160.16,114.59l-4.51-.94,5.59-3.31,4.5,1Z"/></clipPath><clipPath id="clip-path-13"><path class="cls-1" d="M156,131.86l-4.5-1c-.81-.17-1.7-.87-3.24-2.09-.94-.75-1.89-1.48-3-2.32l4.5,1,3,2.31C154.3,131,155.18,131.69,156,131.86Z"/></clipPath><clipPath id="clip-path-14"><path class="cls-1" d="M152.54,109.9,148,109l10.13-6.33,4.51,1C159.22,105.72,156,107.77,152.54,109.9Z"/></clipPath><clipPath id="clip-path-15"><path class="cls-1" d="M161.44,129l-4.5-.95c-3-6.38-5.91-12.62-8.91-19l4.51.94Z"/></clipPath><clipPath id="clip-path-16"><path class="cls-1" d="M146.29,122.89l-4.5-1a47.82,47.82,0,0,0,.34-6.64,3.64,3.64,0,0,1,2.52-4.23,20.77,20.77,0,0,0,2-1.25l4.51.94a19.93,19.93,0,0,1-2,1.25,3.66,3.66,0,0,0-2.52,4.23A46.45,46.45,0,0,1,146.29,122.89Z"/></clipPath><clipPath id="clip-path-17"><path class="cls-1" d="M138.61,133.49l-4.51-.94,3.75-2.32,4.5,1Z"/></clipPath><clipPath id="clip-path-18"><path class="cls-1" d="M137.89,139.54l-4.5-.95a1.92,1.92,0,0,0,.62,0,.71.71,0,0,0,.28-.1,3.11,3.11,0,0,0,.92-2.25,19,19,0,0,0-1.11-3.73l4.51.94a18.42,18.42,0,0,1,1.1,3.73,3.08,3.08,0,0,1-.91,2.25.59.59,0,0,1-.29.11A2.25,2.25,0,0,1,137.89,139.54Z"/></clipPath><clipPath id="clip-path-19"><path class="cls-1" d="M147.6,137.45l-4.5-.94c-3-6.36-5.87-12.57-8.87-19l4.5,1Z"/></clipPath><clipPath id="clip-path-20"><path class="cls-1" d="M138.73,118.48l-4.5-1,4.12-2.65,4.51.94Z"/></clipPath><clipPath id="clip-path-21"><path class="cls-1" d="M129,125l4.5,1a2.39,2.39,0,0,1,1,.44,10.07,10.07,0,0,1,1.66,2.3l-4.5-.95a10.63,10.63,0,0,0-1.66-2.3A2.52,2.52,0,0,0,129,125Z"/></clipPath><clipPath id="clip-path-22"><path class="cls-1" d="M131.17,120.59l4.5,1a4.12,4.12,0,0,0-1.45,0l-4.51-.94A4,4,0,0,1,131.17,120.59Z"/></clipPath><clipPath id="clip-path-23"><path class="cls-1" d="M132.5,221.94,128,221c5.26-5.92,10.37-11.64,15.45-17.37q21.5-24.24,43-48.49a9.07,9.07,0,0,1,1.84-1.62q11.49-7.19,23-14.3c.17-.1.38-.15,1.19-.48l4.5.95a12.2,12.2,0,0,0-1.18.48q-11.5,7.14-23,14.3a8.81,8.81,0,0,0-1.84,1.62q-21.51,24.22-43,48.48C142.87,210.31,137.76,216,132.5,221.94Z"/></clipPath><clipPath id="clip-path-24"><path class="cls-1" d="M135.63,143.91l-4.51-.95a5.42,5.42,0,0,1-3.4-2.8,53.3,53.3,0,0,1-4.32-9.08c-1.62-4.41,0-7.83,4.16-9.83a7.22,7.22,0,0,1,2.15-.69l4.51.94a7.62,7.62,0,0,0-2.16.7c-4.18,2-5.77,5.42-4.15,9.83a54,54,0,0,0,4.31,9.08A5.41,5.41,0,0,0,135.63,143.91Z"/></clipPath><clipPath id="clip-path-25"><path class="cls-1" d="M127.8,149.83l-4.5-.94c-3-6.36-5.89-12.62-8.9-19l4.51.95C121.92,137.22,124.83,143.47,127.8,149.83Z"/></clipPath><clipPath id="clip-path-26"><path class="cls-1" d="M118.91,130.79l-4.51-.95c1.5-.93,2.72-1.69,4.19-2.62l4.51.95Z"/></clipPath><clipPath id="clip-path-27"><path class="cls-1" d="M118.5,155.56l-4.51-.95c-2.39-5.1-4.73-10.07-7.18-15.27l4.51.94C113.77,145.48,116.1,150.45,118.5,155.56Z"/></clipPath><clipPath id="clip-path-28"><path class="cls-1" d="M102.08,161.62l-4.5-.94-.08,0,4.51,1Z"/></clipPath><clipPath id="clip-path-29"><path class="cls-1" d="M105.94,138.77l-4.51-1L113,130.69l4.5.95Z"/></clipPath><clipPath id="clip-path-30"><path class="cls-1" d="M107.64,142.37l-4.51-1c-.58-1.22-1.1-2.34-1.7-3.6l4.51,1C106.53,140,107.06,141.15,107.64,142.37Z"/></clipPath><clipPath id="clip-path-31"><path class="cls-1" d="M96.77,180.11l-4.51-1L205.6,108.93l4.5.94Z"/></clipPath><clipPath id="clip-path-32"><path class="cls-1" d="M98.94,184.66l-4.5-.95c-.73-1.53-1.37-2.87-2.18-4.55l4.51,1Z"/></clipPath><clipPath id="clip-path-33"><path class="cls-1" d="M90.71,202l-4.51-.95,138.71-86,4.51,1Z"/></clipPath><clipPath id="clip-path-34"><path class="cls-1" d="M98.72,152.57l-4.5-.94,7.1-4.36,4.5.95Z"/></clipPath><clipPath id="clip-path-35"><path class="cls-1" d="M88.94,159.67l4.5,1,.39.08a2.42,2.42,0,0,1,1.45,1.61c.46,2.05.68,4.2,1.09,7l-4.5-.95c-.42-2.81-.63-5-1.09-7a2.47,2.47,0,0,0-1.45-1.61Z"/></clipPath><clipPath id="clip-path-36"><path class="cls-1" d="M87.29,159.74l-4.5-1c2.12-1.34,3.7-2.44,5.36-3.35,1.27-.69,1.81-1.38,1.39-3.05a59,59,0,0,1-.85-6.57l4.5,1a64.2,64.2,0,0,0,.85,6.57c.43,1.67-.12,2.36-1.39,3C91,157.29,89.41,158.4,87.29,159.74Z"/></clipPath><clipPath id="clip-path-37"><path class="cls-1" d="M70.15,195.16l4.5.94a6.58,6.58,0,0,1,4.54,3.57c1.94,3.62,1.1,7.49-2.66,11.94l-4.51-1c3.77-4.44,4.6-8.31,2.67-11.94A6.58,6.58,0,0,0,70.15,195.16Z"/></clipPath><clipPath id="clip-path-38"><path class="cls-1" d="M77.68,139.44l-4.51-.95,113.4-70.28,4.51.94Z"/></clipPath><clipPath id="clip-path-39"><path class="cls-1" d="M79.88,144,75.37,143c-.7-1.46-1.37-2.83-2.2-4.53l4.51.95C78.51,141.13,79.17,142.51,79.88,144Z"/></clipPath><clipPath id="clip-path-40"><path class="cls-1" d="M58.51,170.1l4.51,1a6.1,6.1,0,0,1,4.41,3.68c2.16,4.53.66,8.36-2.74,11.73l-4.5-1c3.39-3.37,4.9-7.2,2.73-11.73A6.12,6.12,0,0,0,58.51,170.1Z"/></clipPath><clipPath id="clip-path-41"><path class="cls-1" d="M46.65,145l4.5,1a6.46,6.46,0,0,1,4.61,3.78c1.78,3.66.93,7.24-2.83,11.66l-4.5-1c3.75-4.42,4.6-8,2.82-11.65A6.46,6.46,0,0,0,46.65,145Z"/></clipPath><clipPath id="clip-path-42"><path class="cls-1" d="M132.68,199.4l-4.51-1c5-5.64,9.65-11.62,15-16.55,3.83-3.53,8.67-5.66,13.05-8.41l4.51.95c-4.39,2.75-9.23,4.88-13.06,8.4C142.33,187.78,137.72,193.75,132.68,199.4Z"/></clipPath><clipPath id="clip-path-43"><path class="cls-1" d="M135.94,203l-4.5-.95c-1.13-1.25-2.14-2.35-3.27-3.61l4.51,1C133.81,200.66,134.82,201.75,135.94,203Z"/></clipPath><clipPath id="clip-path-44"><path class="cls-1" d="M126.7,241.58l-4.5-.94c-1.9-2.08-3.64-4-5.37-5.87l4.51.94Z"/></clipPath><clipPath id="clip-path-45"><path class="cls-1" d="M113,220.78l4.51.95a6.44,6.44,0,0,1,3.22,1.81c2.79,2.74,3,6.16.63,12.17l-4.51-.94c2.35-6,2.16-9.44-.63-12.18A6.47,6.47,0,0,0,113,220.78Z"/></clipPath><clipPath id="clip-path-46"><path class="cls-1" d="M110.46,223.76l-4.51-.95c-2.39-2.61-4.82-5.25-7-7.61l4.5,1Z"/></clipPath><clipPath id="clip-path-47"><path class="cls-1" d="M110.53,202.19l4.5.95a1.24,1.24,0,0,0-.43,0,2.54,2.54,0,0,0-1,.45c-2.37,1.62-4.87,3-7.28,4.55a3,3,0,0,0-1.22,1.44c-.58,2.06-1,4.16-1.59,6.58l-4.5-1c.57-2.42,1-4.52,1.59-6.58a3,3,0,0,1,1.21-1.43c2.41-1.55,4.91-2.94,7.29-4.55a2.42,2.42,0,0,1,1-.46A1.6,1.6,0,0,1,110.53,202.19Z"/></clipPath><clipPath id="clip-path-48"><path class="cls-1" d="M80,219.13l-4.51-.95L72,210.66l4.51,1Z"/></clipPath><clipPath id="clip-path-49"><path class="cls-1" d="M69.48,196.56l-4.5-.95c-1.57-3.3-3.16-6.65-4.79-10.1l4.5,1C66.33,189.91,67.92,193.26,69.48,196.56Z"/></clipPath><clipPath id="clip-path-50"><path class="cls-1" d="M57.65,171.4l-4.51-1-4.71-10,4.5,1C54.5,164.72,56.09,168.08,57.65,171.4Z"/></clipPath><clipPath id="clip-path-51"><path class="cls-1" d="M45.89,146.34l-4.5-1-3.61-7.75,4.51.94C43.57,141.33,44.75,143.87,45.89,146.34Z"/></clipPath><clipPath id="clip-path-52"><path class="cls-1" d="M42.29,138.58l-4.51-.94,167.66-104,4.51.95Q126,86.66,42.29,138.58Z"/></clipPath><clipPath id="clip-path-53"><path class="cls-1" d="M273.75,53.64l-7.11,3.89a2.18,2.18,0,0,1-.55.22l-.27,0a8.48,8.48,0,0,1-3.19-.43l7.12-3.89a8.44,8.44,0,0,0,3.19.43l.26,0A2.18,2.18,0,0,0,273.75,53.64Z"/></clipPath><clipPath id="clip-path-54"><path class="cls-1" d="M258.46,57.93,265.57,54l.51-.26a5,5,0,0,1,1.48-.45,5.52,5.52,0,0,1,2.19.15l-7.12,3.89a5.49,5.49,0,0,0-2.19-.15,4.9,4.9,0,0,0-1.47.45Z"/></clipPath><clipPath id="clip-path-55"><path class="cls-1" d="M253.23,40.59l-7.11,3.89-.35.18-.39.19L252.5,41l.38-.19Z"/></clipPath><clipPath id="clip-path-56"><path class="cls-1" d="M254.65,52.13,247.54,56l.5-.3a8.13,8.13,0,0,0,3.16-3.37,4.91,4.91,0,0,0,.4-3.24,5.86,5.86,0,0,1,0-3.61,2.27,2.27,0,0,1,1-1l7.11-3.89a2.27,2.27,0,0,0-.95,1,5.86,5.86,0,0,0,0,3.61,4.91,4.91,0,0,1-.4,3.24,8.13,8.13,0,0,1-3.16,3.37Z"/></clipPath><clipPath id="clip-path-57"><path class="cls-1" d="M224.08,26.1l7.11-3.89a2.6,2.6,0,0,0-1.1,1.19,3.6,3.6,0,0,0-.26,2,3.74,3.74,0,0,0,.67,1.93l-7.11,3.89a3.74,3.74,0,0,1-.67-1.93,3.6,3.6,0,0,1,.26-1.95A2.6,2.6,0,0,1,224.08,26.1Z"/></clipPath><clipPath id="clip-path-58"><path class="cls-1" d="M232.9,35.88l-7.11,3.89a22.29,22.29,0,0,0-.3-4.88,15.32,15.32,0,0,0-2.1-3.72l7.11-3.89A15.51,15.51,0,0,1,232.6,31,22.29,22.29,0,0,1,232.9,35.88Z"/></clipPath><clipPath id="clip-path-59"><path class="cls-1" d="M222,23l-7.11,3.89a1.18,1.18,0,0,1-.47.15A3.25,3.25,0,0,1,213,26.9L220.12,23a3.19,3.19,0,0,0,1.36.18A1.18,1.18,0,0,0,222,23Z"/></clipPath><clipPath id="clip-path-60"><path class="cls-1" d="M204.6,24.62l7.11-3.89a.83.83,0,0,1,.29-.1,2.79,2.79,0,0,1,1.18.18l-7.11,3.89a2.79,2.79,0,0,0-1.18-.18A.83.83,0,0,0,204.6,24.62Z"/></clipPath><clipPath id="clip-path-61"><path class="cls-1" d="M230.31,68.11,223.19,72a3.62,3.62,0,0,0,1.49-1.69q.8-1.65.84-6.75l7.11-3.89q0,5.1-.84,6.75A3.6,3.6,0,0,1,230.31,68.11Z"/></clipPath><clipPath id="clip-path-62"><path class="cls-1" d="M193.45,15.3l-7.11,3.89a2,2,0,0,0-.05-1.22l7.11-3.89A2,2,0,0,1,193.45,15.3Z"/></clipPath><clipPath id="clip-path-63"><path class="cls-1" d="M193.4,14.08,186.29,18a2,2,0,0,0-1.06-.58l7.11-3.89A2,2,0,0,1,193.4,14.08Z"/></clipPath><clipPath id="clip-path-64"><path class="cls-1" d="M181,10.21l7.11-3.89a1.81,1.81,0,0,0-.86,1.39l-7.11,3.89A1.81,1.81,0,0,1,181,10.21Z"/></clipPath><clipPath id="clip-path-65"><path class="cls-1" d="M188.4,12.25l-7.12,3.89c-.74-.24-1.2-.51-1.36-.84a3.64,3.64,0,0,1-.06-1.91L187,9.5a3.64,3.64,0,0,0,.06,1.91A2.24,2.24,0,0,0,188.4,12.25Z"/></clipPath><clipPath id="clip-path-66"><path class="cls-1" d="M240.5,74.4l-7.11,3.89a20.24,20.24,0,0,1-5.94,2.19c-.26,0-.51.09-.77.12a17,17,0,0,1-12.24-3.24,18.1,18.1,0,0,1-7.05-8.46,8.66,8.66,0,0,1,.11-7.08A6.16,6.16,0,0,1,210.06,59l7.11-3.89a6.16,6.16,0,0,0-2.56,2.84A8.66,8.66,0,0,0,214.5,65a18.1,18.1,0,0,0,7.05,8.46,17,17,0,0,0,12.25,3.24l.76-.12A20.24,20.24,0,0,0,240.5,74.4Z"/></clipPath><clipPath id="clip-path-67"><path class="cls-1" d="M216.71,50.93l-7.11,3.89-.27.15a16.08,16.08,0,0,1-5.12,1.65,19.73,19.73,0,0,1-8.75-.92,16.85,16.85,0,0,1-9.34-6.81A15.35,15.35,0,0,1,183.74,38l7.11-3.89A15.3,15.3,0,0,0,193.24,45a16.82,16.82,0,0,0,9.33,6.81,19.74,19.74,0,0,0,8.75.92,16.08,16.08,0,0,0,5.12-1.65Z"/></clipPath><clipPath id="clip-path-68"><path class="cls-1" d="M152.53,9.14,145.42,13a3.12,3.12,0,0,0,1.18-1.52,9.11,9.11,0,0,1,3.91-4.4l7.11-3.88a9,9,0,0,0-3.9,4.39A3.19,3.19,0,0,1,152.53,9.14Z"/></clipPath><clipPath id="clip-path-69"><path class="cls-1" d="M147,19.07l7.11-3.89a4,4,0,0,1,1.33-.41,4.37,4.37,0,0,1,.64,0,4.22,4.22,0,0,1,4,2.12,24.91,24.91,0,0,1,2.61,8.62q1.62,10.11.38,11.95l-7.11,3.89q1.25-1.84-.38-11.95A24.91,24.91,0,0,0,153,20.73a4.22,4.22,0,0,0-4-2.12,4.37,4.37,0,0,0-.64.05A3.92,3.92,0,0,0,147,19.07Z"/></clipPath><clipPath id="clip-path-70"><path class="cls-1" d="M161.84,39.43l-7.11,3.89a18.5,18.5,0,0,1,1.21-2l7.11-3.89A20.47,20.47,0,0,0,161.84,39.43Z"/></clipPath><clipPath id="clip-path-71"><path class="cls-1" d="M183.34,43.07,176.23,47l-.55.26a16.59,16.59,0,0,1-4.06,1,63.3,63.3,0,0,1-6.52.51q-5.26.18-7.59-.76a4.2,4.2,0,0,1-2.81-3.36,2.57,2.57,0,0,1,0-1.27l7.11-3.89a2.57,2.57,0,0,0,0,1.27,4.22,4.22,0,0,0,2.81,3.36q2.32.94,7.59.76a63.07,63.07,0,0,0,6.52-.51,16.59,16.59,0,0,0,4.06-1Z"/></clipPath><clipPath id="clip-path-72"><path class="cls-1" d="M156.31,44l-7.11,3.89c-.18.09-.36.19-.56.27a16.92,16.92,0,0,1-4.44,1.13c-1.47.2-3.18.34-5.14.41q-10.59.38-11.38-4.52a2.75,2.75,0,0,1,.08-1.56,5.84,5.84,0,0,1,1.3-1.56,3,3,0,0,0,1-1.89A36.14,36.14,0,0,0,129.7,35c-.34-3.23-.79-6.61-1.37-10.15a12.22,12.22,0,0,0-1-3.83,7.92,7.92,0,0,0-2.67-2.15,3.91,3.91,0,0,1-2.08-2.75,3,3,0,0,1,.89-2.83,11.22,11.22,0,0,1,2.39-1.6L133,7.79a11.49,11.49,0,0,0-2.39,1.6,3,3,0,0,0-.89,2.83A3.92,3.92,0,0,0,131.77,15a8,8,0,0,1,2.66,2.15,12.43,12.43,0,0,1,1,3.83q.86,5.31,1.36,10.15a36.14,36.14,0,0,1,.32,5.14,3,3,0,0,1-1,1.89,6.05,6.05,0,0,0-1.3,1.56,2.75,2.75,0,0,0-.08,1.56q.78,4.89,11.38,4.52c2-.07,3.67-.21,5.14-.41a16.81,16.81,0,0,0,4.44-1.13C156,44.15,156.13,44.05,156.31,44Z"/></clipPath><clipPath id="clip-path-73"><path class="cls-1" d="M125.56,29.48l-7.12,3.89-.14.07,7.12-3.89A.61.61,0,0,1,125.56,29.48Z"/></clipPath><clipPath id="clip-path-74"><path class="cls-1" d="M120.52,41.9l-7.11,3.89a13.38,13.38,0,0,0,5.13-5.52,3.71,3.71,0,0,1,1.29-1.77l7.11-3.89a3.71,3.71,0,0,0-1.29,1.77,13.38,13.38,0,0,1-5.13,5.52Z"/></clipPath><clipPath id="clip-path-75"><path class="cls-1" d="M110.5,27.48l-7.11,3.89q1.88-1,.79-3.24a6.26,6.26,0,0,0-2.75-3,3.69,3.69,0,0,0-2.24-.41,3.84,3.84,0,0,0-1.14.35l-.24.11,7.12-3.89.23-.11a3.84,3.84,0,0,1,1.14-.35,3.69,3.69,0,0,1,2.24.41,6.26,6.26,0,0,1,2.75,3Q112.37,26.46,110.5,27.48Z"/></clipPath><clipPath id="clip-path-76"><path class="cls-1" d="M102.44,40.92,109.55,37l.12-.06-7.11,3.89Z"/></clipPath><clipPath id="clip-path-77"><path class="cls-1" d="M122.34,54l-7.11,3.89c-.39.21-.79.41-1.19.6a19.1,19.1,0,0,1-5.57,1.71,17.69,17.69,0,0,1-8.59-1,22.37,22.37,0,0,1-6.64-3.91,25.85,25.85,0,0,1-6.6-8.46,23.61,23.61,0,0,1-2.46-13.53A20.19,20.19,0,0,1,88.32,23a17.5,17.5,0,0,1,5.51-4.65l7.11-3.89a17.64,17.64,0,0,0-5.51,4.65,20.19,20.19,0,0,0-4.14,10.36A23.69,23.69,0,0,0,93.75,43a25.85,25.85,0,0,0,6.6,8.46A22.37,22.37,0,0,0,107,55.39a17.71,17.71,0,0,0,8.59,1,19.1,19.1,0,0,0,5.57-1.71C121.56,54.45,122,54.25,122.34,54Z"/></clipPath><clipPath id="clip-path-78"><path class="cls-1" d="M76,53.7l-7.12,3.89a1,1,0,0,0,.3-.22,2,2,0,0,0,.54-1.73,38.64,38.64,0,0,0-1.28-4.78,11,11,0,0,0-1.69-3.73,3.87,3.87,0,0,0-2.47-1,4.34,4.34,0,0,1-2.8-1.3,3.48,3.48,0,0,1-.3-4A24.44,24.44,0,0,1,66,34.55a16.2,16.2,0,0,1,3.59-2.91l7.11-3.89a16.2,16.2,0,0,0-3.59,2.91,24.44,24.44,0,0,0-4.87,6.28,3.48,3.48,0,0,0,.3,4,4.35,4.35,0,0,0,2.81,1.3,3.87,3.87,0,0,1,2.46,1A11,11,0,0,1,75.51,47a36.8,36.8,0,0,1,1.28,4.78,2,2,0,0,1-.54,1.73A1.06,1.06,0,0,1,76,53.7Z"/></clipPath><clipPath id="clip-path-79"><path class="cls-1" d="M89.24,77.22l-7.12,3.89a3,3,0,0,1-1,.32,3.52,3.52,0,0,1-1.16,0L87.1,77.5a3.46,3.46,0,0,0,1.15,0A2.88,2.88,0,0,0,89.24,77.22Z"/></clipPath><clipPath id="clip-path-80"><path class="cls-1" d="M87.1,77.5,80,81.39a31.37,31.37,0,0,1-7.2-2.21l7.12-3.89A31.22,31.22,0,0,0,87.1,77.5Z"/></clipPath><clipPath id="clip-path-81"><path class="cls-1" d="M57.08,65.11,50,69a9.44,9.44,0,0,0-3-.9,4,4,0,0,0-.69,0,5.13,5.13,0,0,0-1.71.59l7.11-3.89a5.28,5.28,0,0,1,1.71-.59,4,4,0,0,1,.69,0A9.44,9.44,0,0,1,57.08,65.11Z"/></clipPath><clipPath id="clip-path-82"><path class="cls-1" d="M54,48.05l7.11-3.89a32.22,32.22,0,0,0-6.82,5.67q-5.32,5.45-7,8.88c-1.11,2.3-1.09,4.11.07,5.46a3.06,3.06,0,0,0,2.85,1.16,4.71,4.71,0,0,0,1.48-.5l-7.11,3.89a4.71,4.71,0,0,1-1.48.5,3.06,3.06,0,0,1-2.85-1.16c-1.16-1.35-1.19-3.16-.07-5.46s3.44-5.25,7-8.88A32.22,32.22,0,0,1,54,48.05Z"/></clipPath><clipPath id="clip-path-83"><path class="cls-1" d="M56.19,111.25l-7.11,3.89a3.08,3.08,0,0,0,.9-.82,21.44,21.44,0,0,0,2.35-4.88c1.4-3.7,2-6.75,1.77-9.17a14.68,14.68,0,0,0-3.31-7.5,14.15,14.15,0,0,1-2.11-3.5,3.77,3.77,0,0,1,.1-2.58A2.68,2.68,0,0,1,50,85.22l7.11-3.89a2.68,2.68,0,0,0-1.22,1.47,3.77,3.77,0,0,0-.1,2.58,14.15,14.15,0,0,0,2.11,3.5,14.68,14.68,0,0,1,3.31,7.5c.22,2.42-.37,5.47-1.77,9.17a21,21,0,0,1-2.35,4.88A3.08,3.08,0,0,1,56.19,111.25Z"/></clipPath><clipPath id="clip-path-84"><path class="cls-1" d="M52.14,100,45,103.86a1.06,1.06,0,0,1-.39.13,6.62,6.62,0,0,1-2.89-.77,5.42,5.42,0,0,0-2.82-.5,3.41,3.41,0,0,0-1.09.36L45,99.19A3.28,3.28,0,0,1,46,98.83a5.42,5.42,0,0,1,2.82.5,6.62,6.62,0,0,0,2.9.77A1.2,1.2,0,0,0,52.14,100Z"/></clipPath><clipPath id="clip-path-85"><path class="cls-1" d="M21.82,82.25l7.11-3.89a7.33,7.33,0,0,1,2.51-.8A5,5,0,0,1,32,77.5c.45,0,.86-.08,1.23-.13a5.05,5.05,0,0,0,1.64-.44l-7.11,3.89a5.13,5.13,0,0,1-1.65.44c-.36,0-.77.09-1.23.13a5.51,5.51,0,0,0-.57.06A7.34,7.34,0,0,0,21.82,82.25Z"/></clipPath><clipPath id="clip-path-86"><path class="cls-1" d="M25.27,88.09l7.11-3.89a2.54,2.54,0,0,0-1.19,1.4,3.34,3.34,0,0,0,0,2.19L24,91.68a3.34,3.34,0,0,1,0-2.19A2.56,2.56,0,0,1,25.27,88.09Z"/></clipPath><clipPath id="clip-path-87"><path class="cls-1" d="M14.65,70.85,21.76,67a3.17,3.17,0,0,0-1.47,1.69l-7.11,3.89A3.13,3.13,0,0,1,14.65,70.85Z"/></clipPath><clipPath id="clip-path-88"><path class="cls-1" d="M34.5,100.18l-7.11,3.89c.54-.29,1.2-1.48,2-3.58a3.86,3.86,0,0,0,.23-2.62,5.07,5.07,0,0,0-1.92-2.2A19.61,19.61,0,0,1,25,93.47a4.27,4.27,0,0,1-1-1.79l7.11-3.89a4.27,4.27,0,0,0,1,1.79,19.61,19.61,0,0,0,2.67,2.2A5.07,5.07,0,0,1,36.72,94a3.86,3.86,0,0,1-.23,2.62C35.7,98.7,35,99.89,34.5,100.18Z"/></clipPath><clipPath id="clip-path-89"><path class="cls-1" d="M55,138l-7.11,3.89-.16.08a2.34,2.34,0,0,1-.67.2,3.09,3.09,0,0,1-2-.49,3.06,3.06,0,0,1-1.35-1.32,9.71,9.71,0,0,1-.42-2.72l7.11-3.89a9.25,9.25,0,0,0,.43,2.72,3,3,0,0,0,1.35,1.32,3.05,3.05,0,0,0,2,.49,2.25,2.25,0,0,0,.67-.2A.8.8,0,0,0,55,138Z"/></clipPath><clipPath id="clip-path-90"><path class="cls-1" d="M16.11,84.26,9,88.15q2.17-5.76,2.94-8.55a30.18,30.18,0,0,0,1-5.71,4.83,4.83,0,0,1,.25-1.35l7.11-3.89A5.32,5.32,0,0,0,20.05,70a30.19,30.19,0,0,1-1,5.71Q18.28,78.5,16.11,84.26Z"/></clipPath><clipPath id="clip-path-91"><path class="cls-1" d="M7.29,115.37l7.11-3.89a2.16,2.16,0,0,1,.59-.18,4.9,4.9,0,0,1,.68,0q4.32.33,18.27,8.41a93.23,93.23,0,0,1,14.24,9.72,7.49,7.49,0,0,1,1.71,2,5.55,5.55,0,0,1,.53,2.32l-7.11,3.89a5.4,5.4,0,0,0-.54-2.32,7.25,7.25,0,0,0-1.7-2,93.23,93.23,0,0,0-14.24-9.72q-14-8.07-18.27-8.41a4.9,4.9,0,0,0-.68,0A2.16,2.16,0,0,0,7.29,115.37Z"/></clipPath><clipPath id="clip-path-92"><path class="cls-1" d="M7.14,109.05,0,112.94a31.6,31.6,0,0,1,1.78-5.77l7.11-3.89A31.6,31.6,0,0,0,7.14,109.05Z"/></clipPath><clipPath id="clip-path-93"><path class="cls-1" d="M12.09,113.73,5,117.62a2,2,0,0,1-.73.24,3,3,0,0,1-1.94-.49,4.48,4.48,0,0,1-1.79-1.89A4.28,4.28,0,0,1,0,112.94l7.11-3.89a4.28,4.28,0,0,0,.49,2.54,4.48,4.48,0,0,0,1.79,1.89,3,3,0,0,0,1.94.49A1.91,1.91,0,0,0,12.09,113.73Z"/></clipPath></defs><title>Asset 2</title><g id="Layer_2" data-name="Layer 2"><g id="Layer_1-2" data-name="Layer 1"><g class="cls-2"><g class="cls-2"><g class="cls-3"><g class="cls-2"><path class="cls-4" d="M238.93,107.87l-4.51-1a8.72,8.72,0,0,0,3,.06,14.59,14.59,0,0,0,2.22-.51l4.51.94a14.44,14.44,0,0,1-2.23.51,8.43,8.43,0,0,1-3,0"/></g></g></g><g class="cls-2"><g class="cls-5"><g class="cls-2"><path class="cls-4" d="M227.15,82.74l-4.51-.95a8.43,8.43,0,0,0,3,0,13.1,13.1,0,0,0,2.19-.5l4.51,1a14.55,14.55,0,0,1-2.2.5,8.87,8.87,0,0,1-3-.05"/></g></g></g><g class="cls-2"><g class="cls-6"><g class="cls-2"><path class="cls-4" d="M215.19,57.6l-4.51-1a9.72,9.72,0,0,0,3.38,0,18.44,18.44,0,0,0,2-.4l4.51,1a18.6,18.6,0,0,1-2,.4,9.66,9.66,0,0,1-3.37,0"/></g></g></g><g class="cls-2"><g class="cls-7"><g class="cls-2"><path class="cls-4" d="M193.46,93.4l-4.5-1a1.67,1.67,0,0,0,.5,0,2.18,2.18,0,0,0,.64-.21l4.5.95a2.36,2.36,0,0,1-.64.2,1.4,1.4,0,0,1-.5,0"/><path class="cls-8" d="M194.6,93.21l-4.5-.95a4.68,4.68,0,0,0,.73-.45c1.53-1.1,3.18-2,5.28-3.27l4.51.94c-2.11,1.29-3.75,2.17-5.28,3.28a5.06,5.06,0,0,1-.74.45"/></g></g></g><g class="cls-2"><g class="cls-9"><g class="cls-2"><path class="cls-10" d="M191.21,110.51l-4.51-1c-.45-2.73-.84-4.76-1.09-6.83-.13-1.09-.45-1.66-1.32-1.85l4.51,1c.86.18,1.19.76,1.31,1.85.25,2.06.65,4.1,1.1,6.83"/></g></g></g><g class="cls-2"><g class="cls-11"><g class="cls-2"><path class="cls-10" d="M229.42,116l-4.51-1L194.79,50.74l4.51.95c10,21.46,20,42.82,30.12,64.33"/></g></g></g><g class="cls-2"><g class="cls-12"><g class="cls-2"><path class="cls-8" d="M182.16,101l-4.51-.94c2.16-1.39,3.81-2.56,5.54-3.53a3.64,3.64,0,0,0,.63-.44l4.51.94a3.61,3.61,0,0,1-.64.45c-1.72,1-3.37,2.13-5.53,3.52"/><path class="cls-13" d="M188.33,97l-4.51-.94a1.69,1.69,0,0,0,.31-.35l4.51,1a2,2,0,0,1-.31.34"/><path class="cls-14" d="M188.64,96.67l-4.51-1a1.35,1.35,0,0,0,.19-.33l4.51,1a1.57,1.57,0,0,1-.19.33"/><path class="cls-10" d="M188.83,96.34l-4.51-1a2.54,2.54,0,0,0,.09-1.48,31.24,31.24,0,0,1-.56-6.43l4.51,1a31.3,31.3,0,0,0,.56,6.43,2.63,2.63,0,0,1-.09,1.48"/></g></g></g><g class="cls-2"><g class="cls-15"><g class="cls-2"><path class="cls-10" d="M176.3,119.72l-4.5-.94c-2.42-5.14-4.76-10.13-7.21-15.32l4.51,1c2.44,5.19,4.78,10.18,7.2,15.31"/></g></g></g><g class="cls-2"><g class="cls-16"><g class="cls-2"><path class="cls-8" d="M163.84,122.54l-4.51-1,6.33-3.82,4.5,1-6.32,3.82"/></g></g></g><g class="cls-2"><g class="cls-17"><g class="cls-2"><path class="cls-10" d="M165.41,106.54l-4.5-1-1.67-3.6,4.51,1c.62,1.35,1.11,2.42,1.66,3.6"/></g></g></g><g class="cls-2"><g class="cls-18"><g class="cls-2"><path class="cls-8" d="M163.75,102.94l-4.51-1,11.46-7.12,4.51.95-11.46,7.12"/></g></g></g><path class="cls-19" d="M175.21,95.82l1.72,3.54-3.58,2.41c2.33,5,4.65,10,7.13,15.36l-4.18,2.59c-2.42-5.13-4.76-10.12-7.2-15.31l-3.69,2.13c-.55-1.18-1-2.25-1.66-3.6Z"/><g class="cls-2"><g class="cls-20"><g class="cls-2"><path class="cls-8" d="M160.16,114.59l-4.51-.94,5.59-3.31,4.5,1-5.58,3.3"/></g></g></g><g class="cls-2"><g class="cls-21"><g class="cls-2"><path class="cls-10" d="M156,131.86l-4.5-1c-.81-.17-1.7-.87-3.24-2.09-.94-.75-1.89-1.48-3-2.32l4.5,1,3,2.31c1.54,1.23,2.42,1.93,3.23,2.1"/></g></g></g><g class="cls-2"><g class="cls-22"><g class="cls-2"><path class="cls-8" d="M152.54,109.9,148,109l10.13-6.33,4.51,1c-3.45,2.14-6.72,4.19-10.13,6.32"/></g></g></g><path class="cls-19" d="M162.67,103.58c.57,1.18,1.12,2.29,1.75,3.57L158.48,111l1.68,3.63,5.58-3.3c.56,1.12,1.1,2.23,1.75,3.54l-5.59,3.52,1.94,4.19,6.32-3.82c.62,1.35,1.11,2.41,1.67,3.61L161.44,129l-8.9-19C156,107.77,159.22,105.72,162.67,103.58Z"/><g class="cls-2"><g class="cls-23"><g class="cls-2"><path class="cls-10" d="M161.44,129l-4.5-.95c-3-6.38-5.91-12.62-8.91-19l4.51.94,8.9,19"/></g></g></g><g class="cls-2"><g class="cls-24"><g class="cls-2"><path class="cls-10" d="M146.29,122.89l-4.5-1a47.82,47.82,0,0,0,.34-6.64,4.62,4.62,0,0,1,.26-2.26l4.51.95a4.59,4.59,0,0,0-.27,2.25,46.45,46.45,0,0,1-.34,6.65"/><path class="cls-14" d="M146.9,114l-4.51-.95a3,3,0,0,1,.33-.58l4.5,1a3.6,3.6,0,0,0-.32.58"/><path class="cls-13" d="M147.22,113.41l-4.5-1a2.87,2.87,0,0,1,.47-.52l4.5,1a3.87,3.87,0,0,0-.47.52"/><path class="cls-8" d="M147.69,112.89l-4.5-1a5.17,5.17,0,0,1,1.15-.74l4.5,1a4.74,4.74,0,0,0-1.15.74"/><path class="cls-4" d="M148.84,112.15l-4.5-1,.31-.13.12-.06,4.51.94-.13.06-.31.14"/><path class="cls-8" d="M149.28,112l-4.51-.94c.54-.26,1-.66,1.92-1.19l4.51.94c-.87.54-1.39.94-1.92,1.19"/></g></g></g><g class="cls-2"><g class="cls-25"><g class="cls-2"><path class="cls-8" d="M138.61,133.49l-4.51-.94,3.75-2.32,4.5,1-3.74,2.31"/></g></g></g><g class="cls-2"><g class="cls-26"><g class="cls-2"><path class="cls-4" d="M137.89,139.54l-4.5-.95a1.92,1.92,0,0,0,.62,0,.65.65,0,0,0,.21-.06l4.5,1-.21.06a2.25,2.25,0,0,1-.62,0"/><path class="cls-8" d="M138.72,139.52l-4.5-1,.07,0,.06-.06,4.51.95-.06.05-.08.05"/><path class="cls-13" d="M138.86,139.42l-4.51-.95a1.84,1.84,0,0,0,.26-.29l4.51.94a1.56,1.56,0,0,1-.26.3"/><path class="cls-14" d="M139.12,139.12l-4.51-.94a2.89,2.89,0,0,0,.33-.6l4.51.94a3.11,3.11,0,0,1-.33.6"/><path class="cls-10" d="M139.45,138.52l-4.51-.94a3,3,0,0,0,.27-1.3,19,19,0,0,0-1.11-3.73l4.51.94a18.42,18.42,0,0,1,1.1,3.73,2.88,2.88,0,0,1-.26,1.3"/></g></g></g><g class="cls-2"><g class="cls-27"><g class="cls-2"><path class="cls-10" d="M147.6,137.45l-4.5-.94c-3-6.36-5.87-12.57-8.87-19l4.5,1,8.87,19"/></g></g></g><g class="cls-2"><g class="cls-28"><g class="cls-2"><path class="cls-8" d="M138.73,118.48l-4.5-1,4.12-2.65,4.51.94-4.13,2.66"/></g></g></g><path class="cls-19" d="M151.2,110.76c-.16,3.2-.15,6.11-.53,9a3.05,3.05,0,0,0,1.52,3.32c2.8,2,5.54,4.12,8.26,6.16-.12.31-.13.41-.18.44-1.79,1.36-2.76,2.1-3.63,2.22-1,.15-1.93-.56-3.88-2.12l-3-2.31c-1.22,3.25,1.54,4.87,1.79,7.58-1.22.74-2.51,1.54-4,2.42l-8.87-19,4.13-2.66c1.08,2.23,2.14,4.4,3.43,7.07a46.45,46.45,0,0,0,.34-6.65,3.66,3.66,0,0,1,2.52-4.23A19.93,19.93,0,0,0,151.2,110.76Z"/><g class="cls-2"><g class="cls-29"><g class="cls-2"><path class="cls-10" d="M136.17,128.64l-4.5-.95a10.63,10.63,0,0,0-1.66-2.3,2.52,2.52,0,0,0-1-.44l4.5,1a2.39,2.39,0,0,1,1,.44,10.07,10.07,0,0,1,1.66,2.3"/></g></g></g><g class="cls-2"><g class="cls-30"><g class="cls-2"><path class="cls-4" d="M134.22,121.5l-4.51-.94a4,4,0,0,1,1.46,0l4.5,1a4.12,4.12,0,0,0-1.45,0"/></g></g></g><g class="cls-2"><g class="cls-31"><g class="cls-2"><path class="cls-13" d="M132.5,221.94,128,221c5.26-5.92,10.37-11.64,15.45-17.37q21.5-24.24,43-48.49a12.18,12.18,0,0,1,.88-.88l4.5.94a10.42,10.42,0,0,0-.87.89q-21.51,24.22-43,48.48c-5.09,5.74-10.2,11.46-15.46,17.37"/><path class="cls-8" d="M191.83,155.2l-4.5-.94a6.65,6.65,0,0,1,1-.74q11.49-7.19,23-14.3l.09-.05,4.51,1-.09,0q-11.5,7.14-23,14.3a7.46,7.46,0,0,0-1,.73"/><path class="cls-4" d="M215.88,140.12l-4.51-1c.17-.08.42-.15,1.1-.43l4.5.95c-.67.27-.93.35-1.09.43"/></g></g></g><g class="cls-2"><g class="cls-32"><g class="cls-2"><path class="cls-10" d="M135.63,143.91l-4.51-.95a5.42,5.42,0,0,1-3.4-2.8,53.3,53.3,0,0,1-4.32-9.08,7.75,7.75,0,0,1-.11-5.79l4.51.95a7.65,7.65,0,0,0,.11,5.79,54,54,0,0,0,4.31,9.08,5.41,5.41,0,0,0,3.41,2.8"/><path class="cls-14" d="M127.8,126.24l-4.51-.95a6.83,6.83,0,0,1,.7-1.23l4.5,1a6.23,6.23,0,0,0-.69,1.23"/><path class="cls-13" d="M128.49,125l-4.5-1a7,7,0,0,1,1.08-1.19l4.51.94a8.1,8.1,0,0,0-1.09,1.2"/><path class="cls-8" d="M129.58,123.81l-4.51-.94a10.44,10.44,0,0,1,2.47-1.61l4.51.94a10.55,10.55,0,0,0-2.47,1.61"/><path class="cls-4" d="M132.05,122.2l-4.51-.94h0a7.22,7.22,0,0,1,2.15-.69l4.51.94a7.62,7.62,0,0,0-2.16.7h0"/></g></g></g><path class="cls-19" d="M134.22,121.5c2.42-.34,4.19,1.17,5.65,4.78-.55.38-1.12.8-1.72,1.18s-1.24.74-2,1.18a10.07,10.07,0,0,0-1.66-2.3,2.38,2.38,0,0,0-1.61-.48.82.82,0,0,0-.35.13,2.5,2.5,0,0,0-.82,2.1q2.42,5.53,5.16,10.9a2,2,0,0,0,1.62.59.59.59,0,0,0,.29-.11,3.08,3.08,0,0,0,.91-2.25,18.42,18.42,0,0,0-1.1-3.73l3.74-2.31c2.92,5.2,2.24,8.62-2.09,11.45a7.83,7.83,0,0,1-3.15,1.32c-1.91.27-3.55-.63-4.89-2.84a54,54,0,0,1-4.31-9.08c-1.62-4.41,0-7.84,4.15-9.83A7.62,7.62,0,0,1,134.22,121.5Z"/><g class="cls-2"><g class="cls-33"><g class="cls-2"><path class="cls-10" d="M127.8,149.83l-4.5-.94c-3-6.36-5.89-12.62-8.9-19l4.51.95c3,6.43,5.92,12.68,8.89,19"/></g></g></g><g class="cls-2"><g class="cls-34"><g class="cls-2"><path class="cls-8" d="M118.91,130.79l-4.51-.95c1.5-.93,2.72-1.69,4.19-2.62l4.51.95-4.19,2.62"/></g></g></g><g class="cls-2"><g class="cls-35"><g class="cls-2"><path class="cls-10" d="M118.5,155.56l-4.51-.95c-2.39-5.1-4.73-10.07-7.18-15.27l4.51.94c2.45,5.2,4.78,10.17,7.18,15.28"/></g></g></g><g class="cls-2"><g class="cls-36"><g class="cls-2"><path class="cls-10" d="M102.08,161.62l-4.5-.94-.08,0,4.51,1h.07"/></g></g></g><g class="cls-2"><g class="cls-37"><g class="cls-2"><path class="cls-8" d="M105.94,138.77l-4.51-1L113,130.69l4.5.95-11.52,7.13"/></g></g></g><g class="cls-2"><g class="cls-38"><g class="cls-2"><path class="cls-10" d="M107.64,142.37l-4.51-1c-.58-1.22-1.1-2.34-1.7-3.6l4.51,1c.59,1.26,1.12,2.38,1.7,3.6"/></g></g></g><path class="cls-19" d="M117.46,131.64c.57,1.22,1.07,2.33,1.65,3.58l-3.56,2.39c2.37,5.1,4.71,10.14,7.12,15.35l-4.17,2.6c-2.4-5.11-4.73-10.08-7.18-15.28l-3.68,2.09c-.58-1.22-1.11-2.34-1.7-3.6Z"/><g class="cls-2"><g class="cls-39"><g class="cls-2"><path class="cls-8" d="M96.77,180.11l-4.51-1L205.6,108.93l4.5.94L96.77,180.11"/></g></g></g><g class="cls-2"><g class="cls-40"><g class="cls-2"><path class="cls-10" d="M98.94,184.66l-4.5-.95c-.73-1.53-1.37-2.87-2.18-4.55l4.51,1,2.17,4.55"/></g></g></g><g class="cls-2"><g class="cls-41"><g class="cls-2"><path class="cls-8" d="M90.71,202l-4.51-.95,138.71-86,4.51,1L90.71,202"/></g></g></g><g class="cls-2"><g class="cls-42"><g class="cls-2"><path class="cls-8" d="M98.72,152.57l-4.5-.94,7.1-4.36,4.5.95-7.1,4.35"/></g></g></g><g class="cls-2"><g class="cls-43"><g class="cls-2"><path class="cls-10" d="M96.37,169.32l-4.5-.95c-.42-2.81-.63-5-1.09-7a2.47,2.47,0,0,0-1.45-1.61l-.39-.08,4.5,1,.39.08a2.42,2.42,0,0,1,1.45,1.61c.46,2.05.68,4.2,1.09,7"/></g></g></g><g class="cls-2"><g class="cls-44"><g class="cls-2"><path class="cls-8" d="M87.29,159.74l-4.5-1c2.12-1.34,3.7-2.44,5.36-3.35a4.8,4.8,0,0,0,.88-.59l4.5,1a4.48,4.48,0,0,1-.88.59c-1.65.9-3.24,2-5.36,3.35"/><path class="cls-13" d="M93.53,155.8l-4.5-1a2,2,0,0,0,.31-.35l4.51.95a2.6,2.6,0,0,1-.32.35"/><path class="cls-14" d="M93.85,155.45l-4.51-.95a1.35,1.35,0,0,0,.19-.33l4.51,1a1.77,1.77,0,0,1-.19.33"/><path class="cls-10" d="M94,155.12l-4.51-1a2.79,2.79,0,0,0,0-1.78,59,59,0,0,1-.85-6.57l4.5,1a64.2,64.2,0,0,0,.85,6.57,2.73,2.73,0,0,1,0,1.78"/></g></g></g><g class="cls-2"><g class="cls-45"><g class="cls-2"><path class="cls-13" d="M76.53,211.61l-4.51-1c.43-.5.82-1,1.17-1.49l4.5,1c-.35.49-.73,1-1.16,1.49"/><path class="cls-14" d="M77.69,210.12l-4.5-1a15.41,15.41,0,0,0,1.71-2.95l4.5.94a15.47,15.47,0,0,1-1.71,3"/><path class="cls-10" d="M79.4,207.16l-4.5-.94a8.27,8.27,0,0,0-.21-7.5,6.58,6.58,0,0,0-4.54-3.56l4.5.94a6.58,6.58,0,0,1,4.54,3.57,8.19,8.19,0,0,1,.21,7.49"/></g></g></g><g class="cls-2"><g class="cls-46"><g class="cls-2"><path class="cls-8" d="M77.68,139.44l-4.51-.95,113.4-70.28,4.51.94L77.68,139.44"/></g></g></g><g class="cls-2"><g class="cls-47"><g class="cls-2"><path class="cls-10" d="M79.88,144,75.37,143c-.7-1.46-1.37-2.83-2.2-4.53l4.51.95c.83,1.69,1.49,3.07,2.2,4.52"/></g></g></g><g class="cls-2"><g class="cls-48"><g class="cls-2"><path class="cls-13" d="M64.69,186.46l-4.5-1A18.14,18.14,0,0,0,62,183.42l4.5.94a15.79,15.79,0,0,1-1.81,2.1"/><path class="cls-14" d="M66.5,184.36l-4.5-.94a12,12,0,0,0,1.23-2.15l4.5.94a10.81,10.81,0,0,1-1.23,2.15"/><path class="cls-10" d="M67.73,182.21l-4.5-.94a8.69,8.69,0,0,0-.31-7.49,6.12,6.12,0,0,0-4.41-3.68l4.51,1a6.1,6.1,0,0,1,4.41,3.68,8.7,8.7,0,0,1,.3,7.48"/></g></g></g><g class="cls-2"><g class="cls-49"><g class="cls-2"><path class="cls-13" d="M52.93,161.4l-4.5-1c.47-.55.89-1.09,1.27-1.62l4.5.95c-.38.53-.8,1.06-1.27,1.62"/><path class="cls-14" d="M54.2,159.78l-4.5-.95a15.55,15.55,0,0,0,1.68-2.91l4.51,1a15.4,15.4,0,0,1-1.69,2.91"/><path class="cls-10" d="M55.89,156.87l-4.51-1a8.05,8.05,0,0,0-.13-7.12,6.46,6.46,0,0,0-4.6-3.79l4.5,1a6.46,6.46,0,0,1,4.61,3.78,8.11,8.11,0,0,1,.13,7.13"/></g></g></g><path class="cls-19" d="M244.14,107.41,247.7,115,80,219.13l-3.51-7.52c3.76-4.45,4.6-8.32,2.66-11.94-1.52-2.85-4.09-4.11-7.51-3.63a13.13,13.13,0,0,0-2.2.52c-1.56-3.3-3.15-6.65-4.79-10.1,3.4-3.37,4.9-7.2,2.74-11.73-1.47-3.08-4-4.27-7.83-3.73a17.82,17.82,0,0,0-2,.4c-1.56-3.32-3.15-6.68-4.72-10,3.76-4.42,4.61-8,2.83-11.66-1.49-3.05-4.09-4.36-7.85-3.84a15.39,15.39,0,0,0-2,.44c-1.14-2.47-2.32-5-3.6-7.76q83.85-52,167.66-104l3.59,7.55c-3.44,3.33-4.94,7.26-2.7,11.84,1.49,3,4,4.16,7.72,3.63a18.6,18.6,0,0,0,2-.4l4.71,9.94c-3.77,4.72-4.57,8.37-2.68,11.89,1.57,3,4,4.21,7.53,3.72a14.55,14.55,0,0,0,2.2-.5l4.74,9.94c-3.7,4-4.87,7.93-2.5,12.22q2.31,4.18,7.35,3.47A14.44,14.44,0,0,0,244.14,107.41ZM90.71,202l138.71-86c-10.07-21.51-20.08-42.87-30.12-64.33l-138.71,86L90.71,202"/><path class="cls-19" d="M188.36,88.43a50.52,50.52,0,0,1,3.77,4c.62.8,1.19,1.1,1.83,1a3.21,3.21,0,0,0,1.38-.65c1.53-1.11,3.17-2,5.28-3.28-1.36,3.08-2.44,5.55-3.55,8.06,1.72,1.88,3.38,3.67,5.51,6-2.42-.27-4.29-.38-6.12-.73a3,3,0,0,0-.93,0c-.7.1-1.15.57-1.52,1.54-.74,1.88-1.65,3.67-2.8,6.21-.45-2.73-.85-4.77-1.1-6.83-.14-1.28-.56-1.85-1.81-1.91-1.86-.09-3.69-.46-6.14-.79,2.16-1.39,3.81-2.55,5.53-3.52a2.15,2.15,0,0,0,1.23-2.6A31.3,31.3,0,0,1,188.36,88.43Z"/><g class="cls-2"><g class="cls-50"><g class="cls-2"><path class="cls-13" d="M132.68,199.4l-4.51-1c5-5.64,9.65-11.62,15-16.55l.23-.22,4.51.95-.24.21c-5.36,4.94-10,10.91-15,16.56"/><path class="cls-8" d="M147.93,182.63l-4.51-.95c3.79-3.4,8.53-5.49,12.82-8.19l4.51.95c-4.3,2.69-9,4.79-12.82,8.19"/></g></g></g><path class="cls-19" d="M160.75,174.44c.07.14.15.28.23.42l-25,28.15c-1.12-1.26-2.13-2.35-3.26-3.61,5-5.65,9.65-11.62,15-16.56C151.52,179.32,156.36,177.19,160.75,174.44Z"/><g class="cls-2"><g class="cls-51"><g class="cls-2"><path class="cls-10" d="M135.94,203l-4.5-.95c-1.13-1.25-2.14-2.35-3.27-3.61l4.51,1c1.13,1.26,2.14,2.35,3.26,3.61"/></g></g></g><g class="cls-2"><g class="cls-52"><g class="cls-2"><path class="cls-10" d="M126.7,241.58l-4.5-.94c-1.9-2.08-3.64-4-5.37-5.87l4.51.94,5.36,5.87"/></g></g></g><g class="cls-2"><g class="cls-53"><g class="cls-2"><path class="cls-10" d="M121.34,235.71l-4.51-.94c2.35-6,2.16-9.44-.63-12.18a6.47,6.47,0,0,0-3.22-1.81l4.51.95a6.44,6.44,0,0,1,3.22,1.81c2.79,2.74,3,6.16.63,12.17"/></g></g></g><g class="cls-2"><g class="cls-54"><g class="cls-2"><path class="cls-10" d="M110.46,223.76l-4.51-.95c-2.39-2.61-4.82-5.25-7-7.61l4.5,1,7,7.61"/></g></g></g><path class="cls-19" d="M217,139.69c-30.35,34.24-60.25,68-90.27,101.89l-5.36-5.87c2.35-6,2.16-9.43-.63-12.17a6.12,6.12,0,0,0-5.39-1.87,11.76,11.76,0,0,0-4.86,2.09l-7-7.61c.57-2.42,1-4.52,1.59-6.58a3,3,0,0,1,1.22-1.44c2.41-1.55,4.91-2.93,7.28-4.55a2.54,2.54,0,0,1,1-.45c.6-.09,1.08.25,1.65.88,5.31,5.94,10.68,11.81,16.25,17.93,5.26-5.91,10.37-11.63,15.46-17.37q21.49-24.24,43-48.48a8.81,8.81,0,0,1,1.84-1.62q11.47-7.18,23-14.3A12.2,12.2,0,0,1,217,139.69Z"/><g class="cls-2"><g class="cls-55"><g class="cls-2"><path class="cls-10" d="M103.48,216.15l-4.5-1c.57-2.42,1-4.52,1.59-6.58a.7.7,0,0,1,.06-.17l4.5,1-.06.17c-.58,2.06-1,4.16-1.59,6.58"/><path class="cls-14" d="M105.13,209.4l-4.5-1a1.74,1.74,0,0,1,.23-.39l4.5.94a2.3,2.3,0,0,0-.23.4"/><path class="cls-13" d="M105.36,209l-4.5-.94a2.91,2.91,0,0,1,.47-.52l4.51.94a3.89,3.89,0,0,0-.48.52"/><path class="cls-8" d="M105.84,208.48l-4.51-.94a2.75,2.75,0,0,1,.45-.35c2.41-1.55,4.91-2.94,7.29-4.55a3,3,0,0,1,.47-.28l4.51.95a4,4,0,0,0-.48.27c-2.37,1.62-4.87,3-7.28,4.55a3.64,3.64,0,0,0-.45.35"/><path class="cls-4" d="M114.05,203.31l-4.51-.95a2,2,0,0,1,.55-.18,1.6,1.6,0,0,1,.44,0l4.5.95a1.24,1.24,0,0,0-.43,0,1.61,1.61,0,0,0-.55.18"/></g></g></g><path class="cls-19" d="M123.1,128.17l8.89,19-4.19,2.64c-3-6.36-5.88-12.61-8.89-19Z"/><path class="cls-19" d="M210.1,109.87l2.26,4.5L98.94,184.66l-2.17-4.55Z"/><g class="cls-2"><g class="cls-56"><g class="cls-2"><path class="cls-10" d="M80,219.13l-4.51-.95L72,210.66l4.51,1L80,219.13"/></g></g></g><path class="cls-19" d="M93.19,146.77l5.53,5.8,7.1-4.35c-1.12,2.55-1.86,4.51-2.82,6.33a2.31,2.31,0,0,0,.5,3.18,23.18,23.18,0,0,1,3.68,4.52c-1.72-.19-3.48-.28-5.17-.64a3.31,3.31,0,0,0-1.15-.07c-.87.12-1.43.74-1.87,2-.64,1.78-1.54,3.46-2.62,5.8-.41-2.81-.63-5-1.09-7a2.42,2.42,0,0,0-1.45-1.61c-1.94-.44-4-.61-6.54-1,2.12-1.34,3.71-2.45,5.36-3.35,1.27-.69,1.82-1.38,1.39-3A64.2,64.2,0,0,1,93.19,146.77Z"/><path class="cls-19" d="M191.08,69.15c.75,1.59,1.39,2.92,2.16,4.56L79.88,144c-.71-1.45-1.37-2.83-2.2-4.52Z"/><g class="cls-2"><g class="cls-57"><g class="cls-2"><path class="cls-10" d="M69.48,196.56l-4.5-.95c-1.57-3.3-3.16-6.65-4.79-10.1l4.5,1c1.64,3.45,3.23,6.8,4.79,10.1"/></g></g></g><g class="cls-2"><g class="cls-58"><g class="cls-2"><path class="cls-10" d="M57.65,171.4l-4.51-1-4.71-10,4.5,1c1.57,3.32,3.16,6.68,4.72,10"/></g></g></g><g class="cls-2"><g class="cls-59"><g class="cls-2"><path class="cls-10" d="M45.89,146.34l-4.5-1-3.61-7.75,4.51.94c1.28,2.75,2.46,5.29,3.6,7.76"/></g></g></g><g class="cls-2"><g class="cls-60"><g class="cls-2"><path class="cls-8" d="M42.29,138.58l-4.51-.94,167.66-104,4.51.95q-84,52-167.66,104"/></g></g></g></g><g class="cls-2"><g class="cls-2"><g class="cls-61"><g class="cls-2"><path class="cls-62" d="M273.75,53.64l-7.11,3.89a2.18,2.18,0,0,1-.55.22l-.27,0a8.48,8.48,0,0,1-3.19-.43l7.12-3.89a8.44,8.44,0,0,0,3.19.43l.26,0a2.18,2.18,0,0,0,.55-.22"/></g></g></g><g class="cls-2"><g class="cls-63"><g class="cls-2"><path class="cls-62" d="M269.75,53.48l-7.12,3.89a5.49,5.49,0,0,0-2.19-.15,4.9,4.9,0,0,0-1.47.45l-.51.26L265.57,54l.51-.26a5,5,0,0,1,1.48-.45,5.52,5.52,0,0,1,2.19.15"/></g></g></g><g class="cls-2"><g class="cls-64"><g class="cls-2"><path class="cls-62" d="M253.23,40.59l-7.11,3.89-.35.18-.39.19L252.5,41l.38-.19.35-.18"/></g></g></g><g class="cls-2"><g class="cls-65"><g class="cls-2"><path class="cls-62" d="M254.65,52.13,247.54,56l.5-.3a8.13,8.13,0,0,0,3.16-3.37,4.91,4.91,0,0,0,.4-3.24,5.86,5.86,0,0,1,0-3.61,2.27,2.27,0,0,1,1-1l7.11-3.89a2.27,2.27,0,0,0-.95,1,5.86,5.86,0,0,0,0,3.61,4.91,4.91,0,0,1-.4,3.24,8.13,8.13,0,0,1-3.16,3.37l-.5.3"/></g></g></g><g class="cls-2"><g class="cls-66"><g class="cls-2"><path class="cls-62" d="M230.5,27.28l-7.11,3.89a3.74,3.74,0,0,1-.67-1.93,3.6,3.6,0,0,1,.26-1.95,2.6,2.6,0,0,1,1.1-1.19l7.11-3.89a2.6,2.6,0,0,0-1.1,1.19,3.6,3.6,0,0,0-.26,2,3.74,3.74,0,0,0,.67,1.93"/></g></g></g><g class="cls-2"><g class="cls-67"><g class="cls-2"><path class="cls-62" d="M232.9,35.88l-7.11,3.89a22.29,22.29,0,0,0-.3-4.88,15.32,15.32,0,0,0-2.1-3.72l7.11-3.89A15.51,15.51,0,0,1,232.6,31a22.29,22.29,0,0,1,.3,4.88"/></g></g></g><g class="cls-2"><g class="cls-68"><g class="cls-2"><path class="cls-62" d="M222,23l-7.11,3.89a1.18,1.18,0,0,1-.47.15A3.25,3.25,0,0,1,213,26.9L220.12,23a3.19,3.19,0,0,0,1.36.18A1.18,1.18,0,0,0,222,23"/></g></g></g><polygon class="cls-69" points="220.12 23.01 213 26.9 206.07 24.7 213.18 20.81 220.12 23.01"/><g class="cls-2"><g class="cls-70"><g class="cls-2"><path class="cls-62" d="M213.18,20.81l-7.11,3.89a2.79,2.79,0,0,0-1.18-.18.83.83,0,0,0-.29.1l7.11-3.89a.83.83,0,0,1,.29-.1,2.79,2.79,0,0,1,1.18.18"/></g></g></g><polygon class="cls-71" points="232.63 59.67 225.52 63.56 225.78 39.77 232.9 35.88 232.63 59.67"/><g class="cls-2"><g class="cls-72"><g class="cls-2"><path class="cls-62" d="M230.31,68.11,223.19,72a3.62,3.62,0,0,0,1.49-1.69q.8-1.65.84-6.75l7.11-3.89q0,5.1-.84,6.75a3.6,3.6,0,0,1-1.48,1.69"/></g></g></g><g class="cls-2"><g class="cls-73"><g class="cls-2"><path class="cls-62" d="M193.45,15.3l-7.11,3.89a2,2,0,0,0-.05-1.22l7.11-3.89a2,2,0,0,1,0,1.22"/></g></g></g><g class="cls-2"><g class="cls-74"><g class="cls-2"><path class="cls-62" d="M193.4,14.08,186.29,18a2,2,0,0,0-1.06-.58l7.11-3.89a2,2,0,0,1,1.06.58"/></g></g></g><g class="cls-2"><g class="cls-75"><g class="cls-2"><path class="cls-62" d="M187.22,7.71l-7.11,3.89a1.81,1.81,0,0,1,.86-1.39l7.11-3.89a1.81,1.81,0,0,0-.86,1.39"/></g></g></g><polygon class="cls-71" points="186.97 9.5 179.86 13.39 180.11 11.6 187.22 7.71 186.97 9.5"/><polygon class="cls-69" points="192.34 13.5 185.23 17.39 181.28 16.14 188.4 12.25 192.34 13.5"/><g class="cls-2"><g class="cls-76"><g class="cls-2"><path class="cls-62" d="M188.4,12.25l-7.12,3.89c-.74-.24-1.2-.51-1.36-.84a3.64,3.64,0,0,1-.06-1.91L187,9.5a3.64,3.64,0,0,0,.06,1.91,2.24,2.24,0,0,0,1.37.84"/></g></g></g><g class="cls-2"><g class="cls-77"><g class="cls-2"><path class="cls-62" d="M240.5,74.4l-7.11,3.89a20.24,20.24,0,0,1-5.94,2.19c-.26,0-.51.09-.77.12a17,17,0,0,1-12.24-3.24,18.1,18.1,0,0,1-7.05-8.46,8.66,8.66,0,0,1,.11-7.08A6.16,6.16,0,0,1,210.06,59l7.11-3.89a6.16,6.16,0,0,0-2.56,2.84A8.66,8.66,0,0,0,214.5,65a18.1,18.1,0,0,0,7.05,8.46,17,17,0,0,0,12.25,3.24l.76-.12a20.24,20.24,0,0,0,5.94-2.19"/></g></g></g><path class="cls-78" d="M232.27,21.87q2.14-.3,6,1.5A68.57,68.57,0,0,1,248,29a24.67,24.67,0,0,1,5.46,4.77q2.37,3,1.18,5.43a3.49,3.49,0,0,1-1.79,1.53,3.34,3.34,0,0,0-1.73,1.48,5.17,5.17,0,0,0-.48,2c0,.77,0,2.16.06,4.15.1,2.25.48,3.6,1.16,4.06a1.72,1.72,0,0,0,1.21.24,5.45,5.45,0,0,0,2.05-.88,8.13,8.13,0,0,0,3.16-3.37,4.91,4.91,0,0,0,.4-3.24,5.86,5.86,0,0,1,0-3.61,2.32,2.32,0,0,1,1.91-1.33,5.37,5.37,0,0,1,1.84.09,19.31,19.31,0,0,1,6.86,3.27q7.38,5.05,5.66,8.64a2.68,2.68,0,0,1-1.75,1.58l-.26,0a8.44,8.44,0,0,1-3.19-.43,5.52,5.52,0,0,0-2.19-.15,5,5,0,0,0-1.48.45,37,37,0,0,0-7.25,5.35l-10.74,9.62a44,44,0,0,1-7.15,5.41,20.71,20.71,0,0,1-6.38,2.43l-.76.12a17,17,0,0,1-12.25-3.24A18.1,18.1,0,0,1,214.5,65a8.66,8.66,0,0,1,.11-7.08,5.83,5.83,0,0,1,3.92-3.36,5.18,5.18,0,0,1,.66-.14,6.22,6.22,0,0,1,4.46,1.19,7.65,7.65,0,0,1,3.23,4.45,6.27,6.27,0,0,1,.32,2,28,28,0,0,1-.54,3.14,2.46,2.46,0,0,0,1,2.74,2.38,2.38,0,0,0,1.7.44,2.91,2.91,0,0,0,.56-.15,3.42,3.42,0,0,0,1.86-1.86q.79-1.65.84-6.75l.27-23.79a22.29,22.29,0,0,0-.3-4.88,15.51,15.51,0,0,0-2.1-3.72,3.74,3.74,0,0,1-.67-1.93,3.6,3.6,0,0,1,.26-2A2.69,2.69,0,0,1,232.27,21.87Z"/><polygon class="cls-71" points="190.85 34.11 183.74 38 186.34 19.19 193.46 15.3 190.85 34.11"/><path class="cls-78" d="M207.71,0a3.31,3.31,0,0,1,1.47.18l3.1,1a1.89,1.89,0,0,1,1.23.87,3.84,3.84,0,0,1,.06,2l-.75,5.5a2.67,2.67,0,0,0,.14,1.7,2.85,2.85,0,0,0,1.5.86l7.09,2.25a2.9,2.9,0,0,1,1.77,1.14,4.64,4.64,0,0,1,.09,2.47l-.33,2.4a4.43,4.43,0,0,1-.9,2.54,1.29,1.29,0,0,1-.7.31,3.19,3.19,0,0,1-1.36-.18l-6.94-2.2a2.79,2.79,0,0,0-1.18-.18.92.92,0,0,0-.34.12,2.1,2.1,0,0,0-.59,1.43l-1.9,13.75a7.53,7.53,0,0,0,.58,4.35,4.44,4.44,0,0,0,2.68,2.47,5.94,5.94,0,0,0,2.58.11c.48-.07,1-.18,1.57-.32a1.85,1.85,0,0,1,1.2,0,2.73,2.73,0,0,1,1.52,1.72,5.21,5.21,0,0,1,.41,2.8,5.35,5.35,0,0,1-3.27,4,16.08,16.08,0,0,1-5.12,1.65,19.74,19.74,0,0,1-8.75-.92A16.82,16.82,0,0,1,193.24,45a15.3,15.3,0,0,1-2.39-10.89l2.6-18.81a2,2,0,0,0,0-1.22,2,2,0,0,0-1.06-.58l-3.94-1.25a2.24,2.24,0,0,1-1.37-.84A3.64,3.64,0,0,1,187,9.5l.25-1.79a1.75,1.75,0,0,1,1.13-1.51L207.52.06Z"/><g class="cls-2"><g class="cls-79"><g class="cls-2"><path class="cls-62" d="M216.71,50.93l-7.11,3.89-.27.15a16.08,16.08,0,0,1-5.12,1.65,19.73,19.73,0,0,1-8.75-.92,16.85,16.85,0,0,1-9.34-6.81A15.35,15.35,0,0,1,183.74,38l7.11-3.89A15.3,15.3,0,0,0,193.24,45a16.82,16.82,0,0,0,9.33,6.81,19.74,19.74,0,0,0,8.75.92,16.08,16.08,0,0,0,5.12-1.65l.27-.15"/></g></g></g></g><g class="cls-2"><g class="cls-2"><g class="cls-80"><g class="cls-2"><path class="cls-62" d="M152.53,9.14,145.42,13a3.12,3.12,0,0,0,1.18-1.52,9.11,9.11,0,0,1,3.91-4.4l7.11-3.88a9,9,0,0,0-3.9,4.39,3.19,3.19,0,0,1-1.19,1.52"/></g></g></g><g class="cls-2"><g class="cls-81"><g class="cls-2"><path class="cls-62" d="M163.05,37.41l-7.11,3.89q1.25-1.84-.38-11.95A24.91,24.91,0,0,0,153,20.73a4.22,4.22,0,0,0-4-2.12,4.37,4.37,0,0,0-.64.05,3.92,3.92,0,0,0-1.33.41l7.11-3.89a4,4,0,0,1,1.33-.41,4.37,4.37,0,0,1,.64,0,4.22,4.22,0,0,1,4,2.12,24.91,24.91,0,0,1,2.61,8.62q1.62,10.11.38,11.95"/></g></g></g><g class="cls-2"><g class="cls-82"><g class="cls-2"><path class="cls-62" d="M161.84,39.43l-7.11,3.89a18.5,18.5,0,0,1,1.21-2l7.11-3.89a20.47,20.47,0,0,0-1.21,2"/></g></g></g><g class="cls-2"><g class="cls-83"><g class="cls-2"><path class="cls-62" d="M183.34,43.07,176.23,47l-.55.26a16.59,16.59,0,0,1-4.06,1,63.3,63.3,0,0,1-6.52.51q-5.26.18-7.59-.76a4.2,4.2,0,0,1-2.81-3.36,2.57,2.57,0,0,1,0-1.27l7.11-3.89a2.57,2.57,0,0,0,0,1.27,4.22,4.22,0,0,0,2.81,3.36q2.32.94,7.59.76a63.07,63.07,0,0,0,6.52-.51,16.59,16.59,0,0,0,4.06-1l.55-.26"/></g></g></g><g class="cls-2"><g class="cls-84"><g class="cls-2"><path class="cls-62" d="M156.31,44l-7.11,3.89c-.18.09-.36.19-.56.27a16.92,16.92,0,0,1-4.44,1.13c-1.47.2-3.18.34-5.14.41q-10.59.38-11.38-4.52a2.75,2.75,0,0,1,.08-1.56,5.84,5.84,0,0,1,1.3-1.56,3,3,0,0,0,1-1.89A36.14,36.14,0,0,0,129.7,35c-.34-3.23-.79-6.61-1.37-10.15a12.22,12.22,0,0,0-1-3.83,7.92,7.92,0,0,0-2.67-2.15,3.91,3.91,0,0,1-2.08-2.75,3,3,0,0,1,.89-2.83,11.22,11.22,0,0,1,2.39-1.6L133,7.79a11.49,11.49,0,0,0-2.39,1.6,3,3,0,0,0-.89,2.83A3.92,3.92,0,0,0,131.77,15a8,8,0,0,1,2.66,2.15,12.43,12.43,0,0,1,1,3.83q.86,5.31,1.36,10.15a36.14,36.14,0,0,1,.32,5.14,3,3,0,0,1-1,1.89,6.05,6.05,0,0,0-1.3,1.56,2.75,2.75,0,0,0-.08,1.56q.78,4.89,11.38,4.52c2-.07,3.67-.21,5.14-.41a16.81,16.81,0,0,0,4.44-1.13c.2-.08.38-.18.56-.27"/></g></g></g><path class="cls-78" d="M146.33,2.65a4.14,4.14,0,0,1,.45,0,2.78,2.78,0,0,1,2.07.87A3.86,3.86,0,0,1,150,5.66c0,.08.06.44.13,1.06a4.67,4.67,0,0,0,.06.6c.21,1.36.83,2,1.85,2,.69-.09,1.21-.64,1.69-1.68A8.91,8.91,0,0,1,161,2.15,10.57,10.57,0,0,1,162.41,2a14,14,0,0,1,8.68,2.51,12.73,12.73,0,0,1,4.11,4.57A31.36,31.36,0,0,1,177.65,17l2.93,14.92a7.48,7.48,0,0,0,.87,2.49,25.87,25.87,0,0,0,2.85,3,3.22,3.22,0,0,1,.87,1.89,3.42,3.42,0,0,1-2.38,4,16.59,16.59,0,0,1-4.06,1,63.07,63.07,0,0,1-6.52.51q-5.27.18-7.59-.76a4.22,4.22,0,0,1-2.81-3.36,2.57,2.57,0,0,1,0-1.27,20.47,20.47,0,0,1,1.21-2q1.24-1.84-.38-11.95a24.91,24.91,0,0,0-2.61-8.62,4.22,4.22,0,0,0-4-2.12,4.37,4.37,0,0,0-.64,0,2.89,2.89,0,0,0-2.57,1.9c-.44,1.24-.41,3.45.1,6.65l1.35,8.42a15.34,15.34,0,0,0,.83,3.42,26.28,26.28,0,0,0,2.47,3.54,4,4,0,0,1,.7,1.73c.27,1.68-.58,2.94-2.53,3.8a16.81,16.81,0,0,1-4.44,1.13c-1.47.2-3.18.34-5.14.41q-10.59.38-11.38-4.52a2.75,2.75,0,0,1,.08-1.56,6.05,6.05,0,0,1,1.3-1.56,3,3,0,0,0,1-1.89,36.14,36.14,0,0,0-.32-5.14q-.51-4.84-1.36-10.15a12.43,12.43,0,0,0-1-3.83A8,8,0,0,0,131.77,15a3.92,3.92,0,0,1-2.09-2.75,3,3,0,0,1,.89-2.83,20.42,20.42,0,0,1,5.05-2.93c2.29-1,4.51-1.94,6.66-2.68A24.9,24.9,0,0,1,146.33,2.65Z"/></g><g class="cls-2"><g class="cls-2"><g class="cls-85"><g class="cls-2"><path class="cls-62" d="M125.56,29.48l-7.12,3.89-.14.07,7.12-3.89a.61.61,0,0,1,.14-.07"/></g></g></g><g class="cls-2"><g class="cls-86"><g class="cls-2"><path class="cls-62" d="M120.52,41.9l-7.11,3.89a13.38,13.38,0,0,0,5.13-5.52,3.71,3.71,0,0,1,1.29-1.77l7.11-3.89a3.71,3.71,0,0,0-1.29,1.77,13.38,13.38,0,0,1-5.13,5.52"/></g></g></g><g class="cls-2"><g class="cls-87"><g class="cls-2"><path class="cls-62" d="M110.5,27.48l-7.11,3.89q1.88-1,.79-3.24a6.26,6.26,0,0,0-2.75-3,3.69,3.69,0,0,0-2.24-.41,3.84,3.84,0,0,0-1.14.35l-.24.11,7.12-3.89.23-.11a3.84,3.84,0,0,1,1.14-.35,3.69,3.69,0,0,1,2.24.41,6.26,6.26,0,0,1,2.75,3q1.08,2.22-.79,3.24"/></g></g></g><polygon class="cls-88" points="125.42 29.55 118.3 33.44 102.56 40.86 109.67 36.97 125.42 29.55"/><g class="cls-2"><g class="cls-89"><g class="cls-2"><path class="cls-62" d="M109.67,37l-7.11,3.89-.12.06L109.55,37l.12-.06"/></g></g></g><g class="cls-2"><g class="cls-90"><g class="cls-2"><path class="cls-62" d="M122.34,54l-7.11,3.89c-.39.21-.79.41-1.19.6a19.1,19.1,0,0,1-5.57,1.71,17.69,17.69,0,0,1-8.59-1,22.37,22.37,0,0,1-6.64-3.91,25.85,25.85,0,0,1-6.6-8.46,23.61,23.61,0,0,1-2.46-13.53A20.19,20.19,0,0,1,88.32,23a17.5,17.5,0,0,1,5.51-4.65l7.11-3.89a17.64,17.64,0,0,0-5.51,4.65,20.19,20.19,0,0,0-4.14,10.36A23.69,23.69,0,0,0,93.75,43a25.85,25.85,0,0,0,6.6,8.46A22.37,22.37,0,0,0,107,55.39a17.71,17.71,0,0,0,8.59,1,19.1,19.1,0,0,0,5.57-1.71c.41-.19.8-.39,1.19-.6"/></g></g></g><path class="cls-78" d="M131.44,37.25c.94,1.89.84,4.2-.3,6.9a19.47,19.47,0,0,1-10,10.49,19.1,19.1,0,0,1-5.57,1.71,17.71,17.71,0,0,1-8.59-1,22.37,22.37,0,0,1-6.64-3.91A25.85,25.85,0,0,1,93.75,43a23.69,23.69,0,0,1-2.46-13.53,20.19,20.19,0,0,1,4.14-10.36,18.6,18.6,0,0,1,11.77-6.77,16.88,16.88,0,0,1,7.71.74A19.14,19.14,0,0,1,121,16.44a17.08,17.08,0,0,1,4.77,5.73A9.68,9.68,0,0,1,127,26.8a2.92,2.92,0,0,1-1.54,2.75L109.67,37a1,1,0,0,0-.51,1.55,7.59,7.59,0,0,0,4.74,3.72,9.06,9.06,0,0,0,4.19.47,6.74,6.74,0,0,0,2-.59,11.12,11.12,0,0,0,3.2-2.42,11.62,11.62,0,0,0,2.35-3.32,3.6,3.6,0,0,1,1.34-1.8,1.25,1.25,0,0,1,.39-.11,3,3,0,0,1,1.94.57A5.22,5.22,0,0,1,131.44,37.25ZM105,29.5a1.5,1.5,0,0,0,.77.05,4,4,0,0,0,1.16-.37l3.38-1.59c1.43-.68,1.76-1.79,1-3.35a6.26,6.26,0,0,0-2.75-3,3.69,3.69,0,0,0-2.24-.41,3.84,3.84,0,0,0-1.14.35,3.56,3.56,0,0,0-2.09,3.12,6.85,6.85,0,0,0,.61,3.75A2.55,2.55,0,0,0,105,29.5"/></g><g class="cls-2"><g class="cls-2"><g class="cls-91"><g class="cls-2"><path class="cls-62" d="M76,53.7l-7.12,3.89a1,1,0,0,0,.3-.22,2,2,0,0,0,.54-1.73,38.64,38.64,0,0,0-1.28-4.78,11,11,0,0,0-1.69-3.73,3.87,3.87,0,0,0-2.47-1,4.34,4.34,0,0,1-2.8-1.3,3.48,3.48,0,0,1-.3-4A24.44,24.44,0,0,1,66,34.55a16.2,16.2,0,0,1,3.59-2.91l7.11-3.89a16.2,16.2,0,0,0-3.59,2.91,24.44,24.44,0,0,0-4.87,6.28,3.48,3.48,0,0,0,.3,4,4.35,4.35,0,0,0,2.81,1.3,3.87,3.87,0,0,1,2.46,1A11,11,0,0,1,75.51,47a36.8,36.8,0,0,1,1.28,4.78,2,2,0,0,1-.54,1.73,1.06,1.06,0,0,1-.29.22"/></g></g></g><g class="cls-2"><g class="cls-92"><g class="cls-2"><path class="cls-62" d="M89.24,77.22l-7.12,3.89a3,3,0,0,1-1,.32,3.52,3.52,0,0,1-1.16,0L87.1,77.5a3.46,3.46,0,0,0,1.15,0,2.88,2.88,0,0,0,1-.32"/></g></g></g><g class="cls-2"><g class="cls-93"><g class="cls-2"><path class="cls-62" d="M87.1,77.5,80,81.39a31.37,31.37,0,0,1-7.2-2.21l7.12-3.89a31.22,31.22,0,0,0,7.2,2.21"/></g></g></g><polygon class="cls-94" points="79.89 75.29 72.78 79.18 49.97 69 57.08 65.11 79.89 75.29"/><g class="cls-2"><g class="cls-95"><g class="cls-2"><path class="cls-62" d="M57.08,65.11,50,69a9.44,9.44,0,0,0-3-.9,4,4,0,0,0-.69,0,5.13,5.13,0,0,0-1.71.59l7.11-3.89a5.28,5.28,0,0,1,1.71-.59,4,4,0,0,1,.69,0,9.44,9.44,0,0,1,3,.9"/></g></g></g><g class="cls-2"><g class="cls-96"><g class="cls-2"><path class="cls-62" d="M51.7,64.83l-7.11,3.89a4.71,4.71,0,0,1-1.48.5,3.06,3.06,0,0,1-2.85-1.16c-1.16-1.35-1.19-3.16-.07-5.46s3.44-5.25,7-8.88A32.22,32.22,0,0,1,54,48.05l7.11-3.89a32.22,32.22,0,0,0-6.82,5.67q-5.32,5.45-7,8.88c-1.11,2.3-1.09,4.11.07,5.46a3.06,3.06,0,0,0,2.85,1.16,4.71,4.71,0,0,0,1.48-.5"/></g></g></g><path class="cls-78" d="M78.46,27.12a2.66,2.66,0,0,1,2.52,1c1,1.12,1,2.6.19,4.4a7.83,7.83,0,0,0-.92,3.37A27,27,0,0,0,81.58,41l7.58,23.56a39.71,39.71,0,0,1,2,8.1,4.82,4.82,0,0,1-1.06,3.9,3.08,3.08,0,0,1-1.81,1,3.46,3.46,0,0,1-1.15,0,31.22,31.22,0,0,1-7.2-2.21L57.08,65.11a9.44,9.44,0,0,0-3-.9,4,4,0,0,0-.69,0,5.28,5.28,0,0,0-1.71.59,4.71,4.71,0,0,1-1.48.5,3.06,3.06,0,0,1-2.85-1.16c-1.16-1.35-1.18-3.16-.07-5.46s3.44-5.25,7-8.88q4.45-4.55,7.27-5.9a5.87,5.87,0,0,1,1.73-.56,2.63,2.63,0,0,1,2.53.9,4.69,4.69,0,0,1,1,3.29,9.2,9.2,0,0,0,.13,1.91,2.63,2.63,0,0,0,.62,1.12,12.49,12.49,0,0,0,4.37,2.54,7.32,7.32,0,0,0,3.45.76,1.46,1.46,0,0,0,.89-.41,2,2,0,0,0,.54-1.73A36.8,36.8,0,0,0,75.51,47a11,11,0,0,0-1.69-3.73,3.87,3.87,0,0,0-2.46-1,4.35,4.35,0,0,1-2.81-1.3,3.48,3.48,0,0,1-.3-4,24.44,24.44,0,0,1,4.87-6.28C75.23,28.51,77,27.32,78.46,27.12Z"/><g class="cls-2"><g class="cls-97"><g class="cls-2"><path class="cls-62" d="M56.19,111.25l-7.11,3.89a3.08,3.08,0,0,0,.9-.82,21.44,21.44,0,0,0,2.35-4.88c1.4-3.7,2-6.75,1.77-9.17a14.68,14.68,0,0,0-3.31-7.5,14.15,14.15,0,0,1-2.11-3.5,3.77,3.77,0,0,1,.1-2.58A2.68,2.68,0,0,1,50,85.22l7.11-3.89a2.68,2.68,0,0,0-1.22,1.47,3.77,3.77,0,0,0-.1,2.58,14.15,14.15,0,0,0,2.11,3.5,14.68,14.68,0,0,1,3.31,7.5c.22,2.42-.37,5.47-1.77,9.17a21,21,0,0,1-2.35,4.88,3.08,3.08,0,0,1-.9.82"/></g></g></g><g class="cls-2"><g class="cls-98"><g class="cls-2"><path class="cls-62" d="M52.14,100,45,103.86a1.06,1.06,0,0,1-.39.13,6.62,6.62,0,0,1-2.89-.77,5.42,5.42,0,0,0-2.82-.5,3.41,3.41,0,0,0-1.09.36L45,99.19A3.28,3.28,0,0,1,46,98.83a5.42,5.42,0,0,1,2.82.5,6.62,6.62,0,0,0,2.9.77,1.2,1.2,0,0,0,.39-.13"/></g></g></g><g class="cls-2"><g class="cls-99"><g class="cls-2"><path class="cls-62" d="M34.88,76.93l-7.11,3.89a5.13,5.13,0,0,1-1.65.44c-.36,0-.77.09-1.23.13a5.51,5.51,0,0,0-.57.06,7.34,7.34,0,0,0-2.5.8l7.11-3.89a7.33,7.33,0,0,1,2.51-.8A5,5,0,0,1,32,77.5c.45,0,.86-.08,1.23-.13a5.05,5.05,0,0,0,1.64-.44"/></g></g></g><g class="cls-2"><g class="cls-100"><g class="cls-2"><path class="cls-62" d="M31.15,87.79,24,91.68a3.34,3.34,0,0,1,0-2.19,2.56,2.56,0,0,1,1.2-1.4l7.11-3.89a2.54,2.54,0,0,0-1.19,1.4,3.34,3.34,0,0,0,0,2.19"/></g></g></g><g class="cls-2"><g class="cls-101"><g class="cls-2"><path class="cls-62" d="M20.29,68.65l-7.11,3.89a3.13,3.13,0,0,1,1.47-1.69L21.76,67a3.17,3.17,0,0,0-1.47,1.69"/></g></g></g><g class="cls-2"><g class="cls-102"><g class="cls-2"><path class="cls-62" d="M34.5,100.18l-7.11,3.89c.54-.29,1.2-1.48,2-3.58a3.86,3.86,0,0,0,.23-2.62,5.07,5.07,0,0,0-1.92-2.2A19.61,19.61,0,0,1,25,93.47a4.27,4.27,0,0,1-1-1.79l7.11-3.89a4.27,4.27,0,0,0,1,1.79,19.61,19.61,0,0,0,2.67,2.2A5.07,5.07,0,0,1,36.72,94a3.86,3.86,0,0,1-.23,2.62c-.79,2.1-1.45,3.29-2,3.58"/></g></g></g><g class="cls-2"><g class="cls-103"><g class="cls-2"><path class="cls-62" d="M55,138l-7.11,3.89-.16.08a2.34,2.34,0,0,1-.67.2,3.09,3.09,0,0,1-2-.49,3.06,3.06,0,0,1-1.35-1.32,9.71,9.71,0,0,1-.42-2.72l7.11-3.89a9.25,9.25,0,0,0,.43,2.72,3,3,0,0,0,1.35,1.32,3.05,3.05,0,0,0,2,.49,2.25,2.25,0,0,0,.67-.2A.8.8,0,0,0,55,138"/></g></g></g><g class="cls-2"><g class="cls-104"><g class="cls-2"><path class="cls-62" d="M16.11,84.26,9,88.15q2.17-5.76,2.94-8.55a30.18,30.18,0,0,0,1-5.71,4.83,4.83,0,0,1,.25-1.35l7.11-3.89A5.32,5.32,0,0,0,20.05,70a30.19,30.19,0,0,1-1,5.71q-.77,2.79-2.94,8.55"/></g></g></g><g class="cls-2"><g class="cls-105"><g class="cls-2"><path class="cls-62" d="M50.42,133.74l-7.11,3.89a5.4,5.4,0,0,0-.54-2.32,7.25,7.25,0,0,0-1.7-2,93.23,93.23,0,0,0-14.24-9.72q-14-8.07-18.27-8.41a4.9,4.9,0,0,0-.68,0,2.16,2.16,0,0,0-.59.18l7.11-3.89a2.16,2.16,0,0,1,.59-.18,4.9,4.9,0,0,1,.68,0q4.32.33,18.27,8.41a93.23,93.23,0,0,1,14.24,9.72,7.49,7.49,0,0,1,1.71,2,5.55,5.55,0,0,1,.53,2.32"/></g></g></g><polygon class="cls-106" points="8.92 103.28 1.81 107.17 9 88.15 16.11 84.26 8.92 103.28"/><g class="cls-2"><g class="cls-107"><g class="cls-2"><path class="cls-62" d="M7.14,109.05,0,112.94a31.6,31.6,0,0,1,1.78-5.77l7.11-3.89a31.6,31.6,0,0,0-1.78,5.77"/></g></g></g><path class="cls-78" d="M23.45,66.44a14.12,14.12,0,0,1,9,2.13,8.36,8.36,0,0,1,3.32,3.17,4.15,4.15,0,0,1,.3,3.57,2.89,2.89,0,0,1-1.21,1.62,5.05,5.05,0,0,1-1.64.44c-.37,0-.78.09-1.23.13a5,5,0,0,0-.57.06,6.61,6.61,0,0,0-4.23,2.19c-1.17,1.36-2.47,3.93-3.91,7.73q-1.61,4.26-.48,6a6.87,6.87,0,0,0,1.92,1.8c.87.58,3.13,1.93,6.8,4.05a4.91,4.91,0,0,0,2.65.91.94.94,0,0,0,.31-.1c.54-.29,1.2-1.48,2-3.58A3.86,3.86,0,0,0,36.72,94a5.07,5.07,0,0,0-1.92-2.2,19.61,19.61,0,0,1-2.67-2.2,4.27,4.27,0,0,1-1-1.79,3.34,3.34,0,0,1,0-2.19,2.74,2.74,0,0,1,2.38-1.78,10.39,10.39,0,0,1,4.2.83,32.5,32.5,0,0,1,5.75,2.67,28.55,28.55,0,0,1,8.67,7.22A4.23,4.23,0,0,1,53,98.73c-.32.84-.75,1.3-1.29,1.37a6.62,6.62,0,0,1-2.9-.77,5.42,5.42,0,0,0-2.82-.5c-1.39.2-2.42,1.21-3.11,3a3,3,0,0,0,.17,2.87,11,11,0,0,0,3.58,2.81c1.13.67,2.62,1.43,4.48,2.31a27,27,0,0,0,3.75,1.55,1.68,1.68,0,0,0,.7.06,2.39,2.39,0,0,0,1.49-1,21,21,0,0,0,2.35-4.88c1.4-3.7,2-6.75,1.77-9.17a14.68,14.68,0,0,0-3.31-7.5,14.15,14.15,0,0,1-2.11-3.5,3.77,3.77,0,0,1,.1-2.58A2.71,2.71,0,0,1,58.18,81a5.75,5.75,0,0,1,3.69.9,23.09,23.09,0,0,1,5,4.28,38.55,38.55,0,0,1,4.72,6.15,10.74,10.74,0,0,1,1.11,2.36,2.69,2.69,0,0,1-.11,1.65,13.73,13.73,0,0,1-1,1.9,41,41,0,0,0-2.93,6L56.8,135.61a4.1,4.1,0,0,1-1.93,2.46,2.25,2.25,0,0,1-.67.2,3.05,3.05,0,0,1-2-.49,3,3,0,0,1-1.35-1.32,9.25,9.25,0,0,1-.43-2.72,5.55,5.55,0,0,0-.53-2.32,7.49,7.49,0,0,0-1.71-2,93.23,93.23,0,0,0-14.24-9.72q-14-8.07-18.27-8.41a4.9,4.9,0,0,0-.68,0,1.78,1.78,0,0,0-.64.21A6.82,6.82,0,0,0,13,113a2.54,2.54,0,0,1-1.61,1,3,3,0,0,1-1.94-.49,4.48,4.48,0,0,1-1.79-1.89,4.28,4.28,0,0,1-.49-2.54,31.6,31.6,0,0,1,1.78-5.77l7.19-19q2.17-5.76,2.94-8.55a30.19,30.19,0,0,0,1-5.71,5.32,5.32,0,0,1,.24-1.35A3.59,3.59,0,0,1,23.45,66.44Z"/><g class="cls-2"><g class="cls-108"><g class="cls-2"><path class="cls-62" d="M12.09,113.73,5,117.62a2,2,0,0,1-.73.24,3,3,0,0,1-1.94-.49,4.48,4.48,0,0,1-1.79-1.89A4.28,4.28,0,0,1,0,112.94l7.11-3.89a4.28,4.28,0,0,0,.49,2.54,4.48,4.48,0,0,0,1.79,1.89,3,3,0,0,0,1.94.49,1.91,1.91,0,0,0,.73-.24"/></g></g></g></g></g></g></svg>